<?xml version="1.0" standalone="no"?>
<!DOCTYPE svg PUBLIC "-//W3C//DTD SVG 20010904//EN"
 "http://www.w3.org/TR/2001/REC-SVG-20010904/DTD/svg10.dtd">
<svg version="1.0" xmlns="http://www.w3.org/2000/svg"
 width="2400.000000pt" height="2400.000000pt" viewBox="0 0 2400.000000 2400.000000"
 preserveAspectRatio="xMidYMid meet">
<metadata>
Created by potrace 1.14, written by Peter Selinger 2001-2017
</metadata>
<g transform="translate(0.000000,2400.000000) scale(0.100000,-0.100000)"
fill="#000000" stroke="none">
<path d="M8844 22971 c-196 -50 -319 -246 -280 -446 11 -57 67 -151 128 -215
35 -36 88 -94 118 -129 30 -35 60 -69 66 -75 36 -37 177 -226 236 -315 88
-133 131 -210 183 -329 91 -206 126 -403 103 -577 -10 -75 -42 -204 -62 -247
-8 -18 -28 -63 -44 -99 -17 -36 -48 -96 -71 -134 -23 -37 -41 -71 -41 -76 0
-5 -4 -9 -8 -9 -5 0 -14 -10 -19 -22 -12 -25 -113 -163 -178 -243 -22 -27 -47
-58 -55 -68 -8 -11 -19 -24 -25 -31 -5 -6 -32 -38 -60 -71 -27 -33 -52 -62
-55 -65 -3 -3 -28 -32 -55 -65 -28 -33 -55 -65 -61 -71 -130 -141 -402 -493
-496 -646 -32 -51 -61 -98 -65 -103 -23 -30 -108 -206 -147 -301 -68 -171
-103 -303 -127 -483 -52 -389 40 -811 271 -1248 132 -249 351 -558 545 -771
61 -67 105 -96 179 -117 234 -68 460 90 479 337 5 53 -15 154 -34 173 -5 5 -9
15 -9 23 0 7 -6 20 -12 27 -7 8 -18 20 -23 27 -21 26 -150 183 -158 193 -40
47 -164 222 -213 302 -225 361 -315 673 -281 968 15 125 60 262 136 410 47 90
125 220 163 270 160 211 333 426 358 445 20 16 361 435 436 535 92 125 96 130
142 204 15 24 37 58 48 76 106 160 241 498 268 670 32 201 38 371 16 535 -33
262 -165 621 -316 863 -183 291 -386 548 -610 773 -64 64 -94 86 -140 104 -63
24 -178 35 -230 21z"/>
<path d="M10737 22884 c-1 -1 -15 -5 -31 -8 -92 -17 -201 -104 -249 -198 -34
-67 -38 -86 -38 -168 -1 -105 35 -187 121 -280 102 -110 128 -139 181 -200 31
-36 93 -114 138 -175 46 -60 89 -118 97 -128 8 -9 14 -19 14 -21 0 -3 18 -32
40 -65 51 -77 142 -253 174 -339 152 -405 92 -732 -214 -1162 -51 -72 -219
-288 -250 -321 -8 -8 -24 -27 -35 -40 -29 -36 -129 -153 -135 -159 -14 -13
-148 -173 -205 -245 -22 -27 -46 -56 -52 -63 -25 -26 -181 -239 -231 -315
-265 -401 -388 -775 -385 -1171 1 -114 7 -183 27 -311 38 -237 172 -575 334
-841 31 -52 62 -103 67 -112 32 -55 257 -361 298 -404 7 -7 34 -40 61 -73 103
-125 182 -171 307 -179 58 -4 165 19 190 40 8 8 20 14 26 14 22 0 111 98 136
151 42 84 51 165 31 259 -11 53 -51 118 -123 205 -42 50 -87 106 -101 124 -14
18 -34 45 -46 59 -100 126 -237 347 -306 492 -178 374 -198 698 -61 1019 103
244 235 430 619 881 152 179 317 379 349 424 11 16 37 51 58 78 164 212 329
525 397 753 15 52 22 75 36 130 5 22 26 153 31 195 12 104 5 345 -12 430 -2
13 -7 41 -10 62 -28 187 -151 501 -285 727 -38 66 -130 210 -147 231 -6 8 -49
65 -95 127 -93 125 -259 320 -370 434 -98 101 -175 140 -290 144 -32 1 -59 1
-61 -1z"/>
<path d="M12785 22883 c-223 -40 -364 -251 -309 -462 24 -92 52 -131 209 -295
92 -97 279 -339 367 -476 126 -198 222 -427 246 -589 10 -64 9 -277 -1 -331
-40 -216 -195 -502 -423 -779 -65 -79 -168 -203 -179 -215 -6 -6 -46 -53 -90
-105 -345 -406 -479 -588 -618 -834 -36 -64 -67 -119 -67 -122 -1 -3 -12 -31
-27 -62 -48 -110 -112 -298 -128 -381 -35 -180 -43 -267 -40 -427 3 -127 18
-269 35 -330 5 -16 11 -43 14 -60 13 -79 73 -261 130 -395 45 -103 166 -334
177 -338 5 -2 9 -8 9 -14 0 -15 169 -265 244 -362 34 -43 70 -90 81 -105 49
-65 166 -198 192 -217 124 -92 279 -104 413 -33 80 43 167 158 185 245 10 51
6 149 -9 191 -25 70 -47 105 -126 199 -184 217 -324 425 -429 634 -60 122
-126 294 -137 360 -3 14 -7 32 -9 40 -19 62 -25 293 -11 380 29 177 103 356
233 559 87 137 221 306 527 666 397 466 565 717 688 1024 28 71 66 184 73 220
2 9 8 36 14 61 30 119 39 220 36 395 -1 99 -5 194 -8 210 -3 17 -8 46 -12 65
-6 35 -22 107 -32 145 -3 11 -7 32 -10 48 -3 15 -9 30 -14 33 -5 3 -9 12 -9
21 0 29 -61 184 -120 309 -68 141 -194 353 -267 449 -13 17 -27 35 -31 40
-138 188 -338 424 -452 533 -45 42 -123 87 -170 98 -34 7 -121 11 -145 7z"/>
<path d="M2997 15564 c-1 -1 -30 -4 -64 -7 -179 -17 -354 -142 -437 -312 -53
-106 -57 -146 -56 -475 2 -422 13 -926 25 -1125 3 -44 7 -136 10 -205 3 -69 8
-154 10 -190 2 -36 7 -105 10 -155 15 -236 20 -298 45 -575 12 -134 20 -205
25 -240 2 -14 6 -56 10 -95 3 -38 7 -81 10 -95 2 -14 7 -52 10 -85 3 -33 8
-71 10 -85 2 -14 9 -63 15 -110 6 -47 13 -101 16 -120 19 -136 36 -248 49
-325 8 -49 17 -112 21 -140 3 -27 8 -53 10 -56 2 -3 6 -21 9 -40 21 -129 28
-165 47 -254 11 -55 22 -109 23 -120 7 -49 101 -467 120 -537 3 -10 7 -26 9
-35 22 -93 29 -121 37 -143 4 -14 11 -36 13 -50 26 -130 194 -669 303 -970 46
-129 170 -441 202 -514 11 -23 26 -59 35 -81 63 -152 251 -539 367 -755 173
-324 428 -734 635 -1021 l61 -85 -1556 -1 c-856 0 -1577 -3 -1602 -7 -201 -28
-384 -180 -451 -373 -19 -56 -23 -88 -23 -183 0 -203 35 -269 276 -521 238
-249 276 -291 539 -594 100 -115 197 -226 214 -245 17 -19 46 -53 65 -75 121
-142 424 -455 541 -558 30 -27 71 -63 91 -80 19 -18 55 -48 79 -67 24 -19 58
-46 75 -60 28 -24 51 -41 195 -146 211 -155 603 -368 890 -483 58 -24 114 -47
125 -51 241 -101 778 -261 1090 -326 6 -1 30 -7 55 -14 25 -7 56 -14 70 -16
20 -4 123 -25 245 -50 11 -2 67 -13 125 -23 115 -21 182 -34 190 -36 6 -1 120
-19 135 -20 6 -1 24 -4 40 -8 17 -3 50 -9 75 -12 25 -3 68 -10 95 -15 28 -5
75 -12 105 -15 30 -3 62 -8 70 -10 8 -2 36 -7 62 -10 26 -3 62 -7 80 -10 37
-5 163 -21 248 -31 30 -3 60 -9 65 -12 15 -10 7386 -10 7456 0 60 8 103 15
149 23 14 2 45 7 70 10 25 3 56 8 70 10 14 3 40 7 58 10 17 3 44 7 60 10 15 2
97 16 182 30 85 15 247 44 360 67 113 22 214 42 225 44 11 2 40 8 65 14 25 5
56 12 70 14 88 15 572 136 747 187 763 222 1346 495 1833 858 63 47 124 93
135 102 68 57 127 107 179 152 32 29 68 60 80 70 99 86 549 550 685 705 22 27
191 209 281 306 41 44 167 173 279 286 237 239 260 266 299 345 168 342 -54
754 -433 802 -27 3 -766 6 -1642 6 -1070 1 -1590 4 -1586 11 4 5 29 39 55 75
27 36 56 75 64 86 22 31 133 188 147 209 6 10 19 28 28 40 30 39 215 330 291
456 212 354 422 763 585 1142 32 74 27 75 78 -17 60 -109 81 -144 146 -240
317 -470 715 -795 1234 -1010 29 -12 158 -56 220 -75 69 -20 134 -36 195 -46
19 -3 37 -7 40 -9 3 -2 26 -6 50 -9 72 -10 123 -18 145 -23 39 -9 421 -11 495
-3 167 18 198 22 260 35 14 2 41 7 60 10 69 12 234 57 354 97 676 227 1303
699 1799 1355 101 135 327 477 327 497 0 3 11 23 23 44 27 42 139 262 187 367
156 339 307 818 366 1163 3 15 7 34 9 42 3 8 7 38 10 65 3 28 8 57 10 65 2 8
7 39 10 69 4 30 8 61 10 70 1 9 6 54 10 101 4 47 9 99 12 115 7 60 10 543 3
640 -9 114 -19 225 -24 252 -2 10 -7 41 -10 68 -4 28 -10 66 -12 85 -32 225
-118 540 -217 795 -48 124 -202 439 -244 501 -11 16 -33 49 -49 74 -15 25 -55
83 -88 130 -56 79 -75 104 -101 134 -5 6 -35 41 -65 76 -73 87 -188 203 -282
283 -77 66 -263 207 -273 207 -4 0 -32 18 -63 39 -198 134 -588 286 -837 325
-20 4 -40 8 -44 10 -3 2 -31 7 -62 10 -31 4 -65 8 -76 10 -87 17 -361 23 -503
12 -293 -24 -655 -111 -905 -220 -72 -31 -390 -191 -433 -219 -65 -41 -273
-179 -292 -194 -143 -111 -186 -146 -245 -197 -38 -34 -110 -100 -160 -148
-49 -48 -91 -85 -93 -83 -4 4 -3 83 4 465 6 342 6 754 0 785 -3 17 -8 39 -10
50 -12 56 -52 141 -93 195 -84 112 -187 181 -323 216 -61 16 -566 17 -7598 18
-4144 1 -7534 0 -7535 0z m18070 -1798 c172 -27 294 -65 442 -139 336 -168
605 -474 787 -895 42 -98 126 -353 137 -417 3 -16 15 -75 26 -130 11 -55 22
-125 26 -155 3 -30 7 -66 10 -80 15 -83 24 -544 11 -605 -2 -11 -7 -56 -11
-99 -4 -43 -8 -86 -10 -95 -1 -9 -6 -41 -9 -72 -4 -31 -9 -67 -11 -80 -19
-100 -29 -146 -47 -229 -12 -52 -23 -97 -23 -100 -1 -3 -5 -18 -9 -35 -102
-386 -306 -840 -521 -1154 -64 -95 -128 -184 -135 -191 -3 -3 -21 -25 -40 -50
-19 -25 -37 -47 -41 -50 -3 -3 -25 -27 -49 -55 -237 -279 -565 -537 -864 -679
-152 -73 -358 -142 -481 -162 -20 -3 -46 -7 -56 -9 -49 -10 -163 -18 -244 -18
-730 1 -1319 544 -1541 1423 -14 58 -28 114 -30 125 -14 66 -44 283 -50 355
-14 168 -8 540 11 680 2 14 6 46 9 72 3 26 8 58 10 70 3 13 8 39 11 58 7 51
14 91 21 120 3 14 8 36 10 50 11 61 68 272 100 374 82 256 247 624 355 796 9
14 40 63 69 110 62 99 179 261 221 307 16 18 29 35 29 37 0 17 289 312 385
392 278 233 568 393 869 479 103 29 118 32 246 49 89 12 316 13 387 2z"/>
</g>
</svg>
